<?xml version="1.0" encoding="utf-8"?>
<!-- Generator: Adobe Illustrator 22.1.0, SVG Export Plug-In . SVG Version: 6.00 Build 0)  -->
<svg version="1.1" id="Layer_1" xmlns="http://www.w3.org/2000/svg" xmlns:xlink="http://www.w3.org/1999/xlink" x="0px" y="0px"
	 viewBox="0 0 250 70" style="enable-background:new 0 0 250 70;" xml:space="preserve">
<style type="text/css">
	.st0{fill:#9DCB3B;}
	.st1{fill:#FFD105;}
	.st2{fill:#CC2027;}
	.st3{fill:#00669E;}
	.st4{fill:#FFFFFF;}
</style>
<g>
	<path class="st0" d="M41.8,31.4c0-0.1-5.4-6.4-10.8-12.8c-2.7-3.2-5.5-6.5-7.7-9C21,7,19.5,5.3,19,5c-1.3-0.9-2.4-1.3-3.4-1.3
		c-1.6,0-2.8,1-4.4,2.3c-5.7,4.6-10.5,11.4-11,18C0.1,24.6,0,25.3,0,25.9c0,1.6,0.4,2.9,1.5,3.8C2.5,30.6,4,31,6,31.3l30.5,5.5
		c0.9,0.1,1.6,0.2,2.3,0.2c1.3,0,2.2-0.3,2.9-0.8c0.7-0.5,1-1.3,1-2.1C42.6,33.1,42.3,32.2,41.8,31.4z M0.7,24L0.7,24L0.7,24L0.7,24
		z"/>
	<path class="st1" d="M51.8,3.5C45.1,1.3,37.4,0.1,28.7,0c-1.5,0-2.7,0.1-3.6,0.4c-0.9,0.3-1.6,1-1.6,1.9c0,0.9,0.6,1.9,1.5,3
		L43,27.2c1.2,1.5,2.6,2.3,3.9,2.3c1.9,0,3.4-1.6,4-4L55,9.7c0.2-0.9,0.3-1.6,0.3-2.3C55.3,5.5,54,4.4,51.8,3.5z"/>
	<path class="st2" d="M79.8,20L64.5,8.8l-0.1,0c-1-0.3-1.9-0.5-2.7-0.5c-2.2,0-3.4,1.6-4,4.4l-3.3,13.7l0.6,0.1l-0.6-0.1
		c-0.1,0.4-0.1,0.8-0.1,1.2c0,3.1,2.2,5.8,5.3,5.8l0,0c0.9,0,1.8-0.2,2.8-0.7L79.4,27c1.8-0.4,2.8-1.5,2.8-2.9
		C82.2,22.7,81.3,21.3,79.8,20z"/>
	<path class="st3" d="M42.2,43.3c-1.2-1-3.1-1.7-5.9-2.2l0,0L6.2,35.7c-0.9-0.2-1.8-0.3-2.5-0.3c-0.9,0-1.6,0.2-2.2,0.6
		c-0.6,0.4-0.9,1.1-0.9,1.9c0,1.1,0.5,2.3,1.5,3.7C8,52.1,16.5,61.4,31.7,68.9c1.2,0.6,2.3,0.9,3.3,0.9h0c1.8,0,3-1.2,3.7-3.1
		l5-17.9v-0.1c0-0.4,0.1-0.9,0.1-1.3C43.9,45.8,43.5,44.4,42.2,43.3z"/>
	<g>
		<polygon class="st4" points="63.6,58 63.6,63.9 63.6,69.5 66.4,69.5 66.4,63.9 66.4,58 66.4,46.6 63.6,46.6 		"/>
		<polygon class="st4" points="69.5,49 81.5,49 81.5,58 81.5,63.9 81.5,69.5 84.3,69.5 84.3,63.9 84.3,58 84.3,49 96.3,49 
			96.3,46.6 69.5,46.6 		"/>
		<path class="st4" d="M152.2,65.6c-0.6,1.1-1.1,1.4-2.4,1.7c-0.9,0.3-2.7,0.4-5.2,0.4c-2.8,0-4.7-0.1-5.5-0.4
			c-1.4-0.5-2.2-1.5-2.5-3.1c0-0.1,0-0.2,0-0.3c0-0.5-0.1-0.9-0.1-1.9H155c0-1.5,0-3.1-0.1-4c0-0.2-0.1-0.4-0.1-0.6
			c-0.4-1.8-1.3-3.1-2.7-3.8c-1.3-0.7-3.8-1-7.7-1c-3.2,0-5.5,0.3-7,0.7c-1.2,0.4-2.1,1.2-2.7,2.3c-0.3,0.6-0.6,1.4-0.7,2.4
			c-0.1,0.9-0.2,2-0.2,3.2c0,1,0,1.9,0.1,2.7c0.1,1.2,0.4,2.1,0.8,2.9c0.6,1.2,1.5,1.9,2.7,2.4c1.5,0.5,3.8,0.7,7.1,0.7
			c2.3,0,4.1-0.1,5.5-0.3c1.6-0.2,2.8-0.8,3.6-1.6c0.8-0.8,1.4-1.9,1.4-4h-2.5C152.6,64.7,152.4,65.3,152.2,65.6z M136.7,57.5
			c0.4-1.2,1.2-2.1,2.5-2.4c0.9-0.3,2.6-0.4,5.3-0.4c2.4,0,4,0.1,4.8,0.3c1.2,0.3,2.1,0.9,2.7,1.9c0.1,0.3,0.3,0.7,0.4,1.1
			c0.1,0.4,0.1,1.3,0.1,1.9h-15.9c0-0.6,0.1-1.5,0.2-1.9C136.7,57.8,136.7,57.7,136.7,57.5z"/>
		<path class="st4" d="M199.2,65.4c-0.1,0.9-0.6,1.5-1.3,1.8c-0.6,0.3-1.6,0.4-3,0.4c-1.4,0-2.4-0.1-3.2-0.2
			c-0.9-0.2-1.5-0.6-1.8-1.2c-0.3-0.5-0.4-1.3-0.4-2.4c0-0.2,0-0.4,0-0.6l-0.1-8.4h11.8v-2.1h-11.8v-3.7H187v3.7h-3.8v2.1l3.8,0v8.4
			c0,0.2,0,0.4,0,0.6c0,0.9,0,1.5,0.1,1.9c0.2,1.5,0.9,2.5,2.2,3.2c1,0.6,2.8,0.8,5.5,0.8c2,0,3.5-0.2,4.6-0.7
			c1.2-0.5,1.9-1.3,2.1-2.5c0.1-0.6,0.2-1.5,0.2-2.8h-2.3C199.3,64.6,199.3,65.1,199.2,65.4z"/>
		<path class="st4" d="M226.2,55.6c-0.6-1.2-1.5-1.9-2.7-2.3c-1.5-0.5-3.9-0.7-7.2-0.7c-3.4,0-5.9,0.3-7.4,0.7
			c-1.2,0.4-2.1,1.2-2.7,2.3c-0.3,0.6-0.6,1.4-0.7,2.4c-0.1,0.9-0.2,2-0.2,3.2c0,1,0,1.9,0.1,2.7c0.1,1.2,0.4,2.1,0.8,2.9
			c0.6,1.2,1.5,1.9,2.7,2.3c1.5,0.5,3.9,0.7,7.3,0.7c3.4,0,5.8-0.3,7.3-0.7c1.2-0.4,2.1-1.2,2.7-2.3c0.4-0.7,0.6-1.7,0.8-2.9
			c0.1-0.8,0.1-1.7,0.1-2.7c0-1.2-0.1-2.2-0.2-3.2C226.8,57,226.5,56.2,226.2,55.6z M224.2,64.6c-0.2,0.7-0.5,1.3-0.9,1.7
			c-0.4,0.4-0.9,0.7-1.6,0.9c-1,0.3-2.8,0.4-5.5,0.4c-2.1,0-3.6-0.1-4.6-0.2c-1-0.1-1.8-0.5-2.4-1c-0.5-0.5-0.9-1.4-1.1-2.6
			c-0.1-0.7-0.2-1.7-0.2-2.7c0-1.3,0.1-2.4,0.3-3.2c0-0.1,0-0.2,0.1-0.3c0.2-0.7,0.5-1.3,0.9-1.7c0.4-0.4,0.9-0.7,1.6-0.9
			c1-0.3,2.8-0.4,5.3-0.4c2.1,0,3.7,0.1,4.7,0.2c1,0.1,1.8,0.5,2.4,1c0.5,0.4,0.8,1.2,1,2.1c0.2,0.9,0.3,1.9,0.3,3.2
			c0,1.1-0.1,2-0.2,2.7C224.3,64.1,224.3,64.4,224.2,64.6z"/>
		<path class="st4" d="M249.5,55.4c-0.6-1.3-1.7-2.2-3.5-2.6c-0.8-0.2-2-0.3-3.5-0.3c-1.6,0-2.8,0.1-3.6,0.2c-1,0.1-1.7,0.4-2.3,0.8
			c-0.7,0.5-1.3,1.3-1.7,2.5v-3.3h-2.5V58v5.9v5.7h2.5v-5.7v-4.2c0-0.6,0.1-1.2,0.2-1.7c0.2-0.9,0.7-1.7,1.4-2.2
			c1-0.7,2.8-1.2,5.4-1.2c1.2,0,2.2,0.1,2.8,0.2c1.2,0.2,1.9,0.7,2.4,1.5c0.2,0.4,0.3,0.9,0.4,1.7h2.5C250,56.9,249.8,56,249.5,55.4
			z"/>
		<path class="st4" d="M178.1,64.7c-0.2,1.2-1,2-2.3,2.5c-0.8,0.3-2.6,0.4-5.3,0.4c-2.2,0-3.6-0.1-4.4-0.2c-1-0.1-1.7-0.5-2.2-1
			c-0.5-0.5-0.9-1.4-1-2.6c-0.1-0.7-0.2-1.6-0.2-2.7l0,0l0,0c0-1.3,0.1-2.3,0.3-3.2c0.2-1,0.5-1.6,1-2.1c0.5-0.5,1.3-0.9,2.2-1
			c0.8-0.1,2.2-0.2,4.4-0.2c2.7,0,4.5,0.1,5.3,0.4c1.3,0.5,2.1,1.3,2.3,2.5c0,0.1,0,0.3,0,0.4h2.7c0-0.4-0.1-0.8-0.1-1
			c-0.4-1.7-1.3-2.9-2.8-3.5c-1.3-0.6-3.9-0.9-7.6-0.9c-3.2,0-5.6,0.3-7,0.7c-1.2,0.4-2,1.2-2.5,2.4c-0.3,0.6-0.5,1.4-0.7,2.4
			c-0.1,0.9-0.2,2-0.2,3.2l0,0l0,0c0,1,0,1.9,0.1,2.7c0.1,1.2,0.4,2.1,0.7,2.9c0.6,1.2,1.4,1.9,2.5,2.4c1.4,0.5,3.8,0.7,7,0.7
			c3.7,0,6.2-0.3,7.6-0.9c1.5-0.6,2.4-1.8,2.8-3.5c0.1-0.3,0.1-0.8,0.2-1.5h-2.7C178.2,64.2,178.2,64.5,178.1,64.7z"/>
		<path class="st4" d="M128.9,61.7c-0.6-0.8-1.5-1.3-2.9-1.6c-1-0.1-3.4-0.3-7-0.3V62c2.6,0,4.1,0,4.7,0.1c1.1,0.1,1.9,0.2,2.4,0.5
			c0.4,0.2,0.7,0.6,0.8,1.3c0.1,0.3,0.1,0.6,0.1,1c0,1.2-0.4,2-1.2,2.4c-0.8,0.3-2.8,0.5-6.1,0.5c-3.1,0-5.3-0.1-6.5-0.3
			c-0.9-0.2-1.5-0.6-1.8-1.2c-0.1-0.3-0.2-0.9-0.2-1.8v-0.4h-2.6v0.4c0,0.7,0,1.2,0.1,1.7c0,0.5,0.2,1,0.5,1.5
			c0.6,1,1.6,1.7,2.9,1.9c1.3,0.3,3.6,0.4,7,0.4c2.9,0,5.1-0.1,6.3-0.2c1.6-0.2,2.7-0.6,3.3-1.4c0.6-0.7,1-1.9,1-3.5
			c0-0.3,0-0.6,0-0.9C129.5,62.9,129.3,62.2,128.9,61.7z"/>
		<path class="st4" d="M109.1,60.1c0.6,0.8,1.5,1.3,2.9,1.6c1,0.1,3.4,0.3,7,0.3v-2.2c-2.6,0-4.1,0-4.7-0.1
			c-1.1-0.1-1.9-0.2-2.4-0.5c-0.4-0.2-0.7-0.7-0.8-1.3c0-0.3-0.1-0.6-0.1-0.9c0-1.2,0.4-2,1.2-2.4c0.8-0.3,2.8-0.5,6.1-0.5
			c3.1,0,5.3,0.1,6.5,0.3c0.9,0.2,1.5,0.6,1.8,1.2c0.1,0.3,0.2,0.9,0.2,1.8V58h2.6v-0.4c0-0.7,0-1.2-0.1-1.7c0-0.5-0.2-1-0.5-1.5
			c-0.6-1-1.6-1.7-2.9-1.9c-1.3-0.3-3.6-0.4-7-0.4c-2.9,0-5.1,0.1-6.3,0.2c-1.6,0.2-2.7,0.6-3.3,1.4c-0.6,0.7-1,1.9-1,3.5
			c0,0.3,0,0.6,0,0.8C108.6,58.9,108.8,59.6,109.1,60.1z"/>
	</g>
</g>
</svg>
